# xmcd
#
# Track frame offsets:
#	299
#	25113
#	50762
#	74641
#	99828
#	119306
#	141399
#	159440
#	181285
#	199669
#
# Disc length: 2924 seconds
#
# Revision: 1
# Processed by: cddbd v1.5.1PL0 Copyright (c) Steve Scherf et al.
# Submitted via: EasyCDDAExtractor 8.1.4.1
#
DISCID=8c0b690a
DTITLE=RAULIN RODRIGUEZ - PIEL SIN ALMA
DYEAR=2005
DGENRE=Latin
TTITLE0=PIEL SIN ALMA
TTITLE1=SOLO QUIEREME
TTITLE2=DESPUES DE TANTO AMOR
TTITLE3=TE PIERDO Y TE PIENSO
TTITLE4=POR GUSTARTE
TTITLE5=POR TU PRIMER BESO
TTITLE6=MI MEJOR AMIGA (BOLERO)
TTITLE7=YA TE VAS AMOR
TTITLE8=MI MEJOR AMIGA
TTITLE9=LOS RESBALONES (MERENGUE)
EXTD=
EXTT0=
EXTT1=
EXTT2=
EXTT3=
EXTT4=
EXTT5=
EXTT6=
EXTT7=
EXTT8=
EXTT9=
PLAYORDER=
